<?xml version="1.0" encoding="UTF-8"?>
<svg version="1.1" xmlns="http://www.w3.org/2000/svg" width="612" height="408">
<path d="M0 0 C1.13082516 3.39247548 0.88850516 5.23857931 0.44140625 8.76171875 C0.30283203 9.87998047 0.16425781 10.99824219 0.02148438 12.15039062 C-0.12998047 13.31763672 -0.28144531 14.48488281 -0.4375 15.6875 C-0.58509766 16.86634766 -0.73269531 18.04519531 -0.88476562 19.25976562 C-1.2505183 22.17398855 -1.62250126 25.08727922 -2 28 C-0.60974609 28.09087891 -0.60974609 28.09087891 0.80859375 28.18359375 C2.00613281 28.26738281 3.20367187 28.35117188 4.4375 28.4375 C5.63246094 28.51871094 6.82742188 28.59992188 8.05859375 28.68359375 C11 29 11 29 12 30 C12.1875 33.4375 12.1875 33.4375 12 37 C10 39 10 39 6.7421875 39.1953125 C4.82792969 39.16050781 4.82792969 39.16050781 2.875 39.125 C0.95300781 39.09792969 0.95300781 39.09792969 -1.0078125 39.0703125 C-1.99523437 39.04710937 -2.98265625 39.02390625 -4 39 C-4.04629419 46.3973076 -4.08185426 53.79458407 -4.10362434 61.19200706 C-4.1140717 64.62675459 -4.12824805 68.06140317 -4.15087891 71.49609375 C-4.17672063 75.44269638 -4.18646493 79.38925863 -4.1953125 83.3359375 C-4.20563507 84.57242035 -4.21595764 85.8089032 -4.22659302 87.08285522 C-4.22674408 88.22388702 -4.22689514 89.36491882 -4.22705078 90.54052734 C-4.231492 91.548685 -4.23593323 92.55684265 -4.24050903 93.59555054 C-4.23786227 96.18428264 -4.23786227 96.18428264 -2 98 C1.73260909 93.67060748 2.96751603 88.56396547 4.71875 83.21484375 C6 80 6 80 7.6328125 78.5078125 C9.90838933 75.99817633 9.3420306 73.23114296 9.375 69.9375 C9.91225269 55.67155155 13.28014417 42.75691158 23 32 C23.47953125 31.45601562 23.9590625 30.91203125 24.453125 30.3515625 C29.47485529 25.96388906 36.40649073 24.55423357 42.89453125 24.56640625 C45 25 45 25 47.31640625 26.51953125 C50.78177829 28.43128671 53.19678267 28.26678279 57.125 28.125 C63.74517375 27.91505792 63.74517375 27.91505792 67 29 C66.64578945 35.69335793 66.001349 42.2021632 64.85522461 48.80004883 C63.35928543 57.57371898 62.67867531 66.15902486 62.625 75.0625 C62.60457642 76.59535645 62.60457642 76.59535645 62.58374023 78.15917969 C62.62542709 85.17856103 63.84045687 91.32870066 66 98 C66.66 98 67.32 98 68 98 C70.69955503 92.7937153 73.04396293 87.56812728 75.16796875 82.1015625 C76 80 76 80 77 78 C79.375 77.8125 79.375 77.8125 82 78 C84.4822593 81.72338895 84.13808303 83.14329907 83.53515625 87.3984375 C81.58250465 96.89088983 78.06395499 103.63937209 70.75 109.9375 C66.49763774 111.58045814 62.49346844 111.66249855 58 111 C54.5625 109.1875 54.5625 109.1875 52 107 C51.50757813 106.5875 51.01515625 106.175 50.5078125 105.75 C48.42697328 103.33493272 47.48757533 100.76606773 46.3125 97.8125 C45.87550781 96.72582031 45.43851563 95.63914062 44.98828125 94.51953125 C44.66214844 93.68808594 44.33601562 92.85664063 44 92 C43.64808594 92.79664063 43.29617188 93.59328125 42.93359375 94.4140625 C37.16283745 106.79934104 37.16283745 106.79934104 31 110 C26.50288103 111.46176336 22.52742214 111.63233016 18.1875 109.625 C14.00657597 106.88309168 12.57240191 102.57070865 11 98 C10.63648438 98.60328125 10.27296875 99.2065625 9.8984375 99.828125 C4.36312849 108.62784701 4.36312849 108.62784701 -1 111 C-6.94728699 111.83572987 -11.94875897 111.48776166 -17 108 C-21.2858208 103.84023275 -22.99147125 98.50208675 -25 93 C-25.969375 93.598125 -26.93875 94.19625 -27.9375 94.8125 C-30.77190244 96.46494514 -33.40188295 97.45538351 -36.5625 98.3125 C-40.05759612 99.38927204 -41.71899792 100.47339982 -43.9375 103.375 C-48.44625254 109.13007437 -53.65879456 111.58696656 -60.88671875 112.48046875 C-68.73637313 112.90037485 -75.84284664 112.39483914 -82 107 C-85 103.09090909 -85 103.09090909 -85 100 C-85.66 100 -86.32 100 -87 100 C-87.09410156 100.59425781 -87.18820313 101.18851562 -87.28515625 101.80078125 C-88.15972916 104.49140721 -89.25553383 105.42287455 -91.4375 107.1875 C-92.05496094 107.69667969 -92.67242187 108.20585937 -93.30859375 108.73046875 C-97.30129315 111.72729855 -101.17345871 111.51599537 -106 111 C-112.69335539 108.73106597 -114.67441689 104.74508151 -117.73828125 98.55859375 C-120.97633666 89.425874 -121.32880095 80.30053645 -121.25 70.6875 C-121.24323242 69.49777588 -121.23646484 68.30805176 -121.22949219 67.08227539 C-120.9174869 40.5817801 -120.9174869 40.5817801 -113 30.4375 C-108.90391135 27.49343628 -104.94906124 27.82324781 -100 28 C-97.5625 28.5 -97.5625 28.5 -96 29 C-95.65593902 34.96372366 -96.56234811 39.92811082 -98.1484375 45.6796875 C-98.42945313 46.77539062 -98.71046875 47.87109375 -99 49 C-99.17789063 49.6808667 -99.35578125 50.3617334 -99.5390625 51.06323242 C-101.1976439 58.18106413 -101.30588246 65.23097884 -101.26074219 72.50463867 C-101.24999929 74.56263558 -101.26070526 76.61976345 -101.2734375 78.67773438 C-101.27981037 85.72644296 -100.89673707 92.18830537 -99 99 C-95.24531253 95.29310542 -92.86466069 92.31746686 -91.5625 87.125 C-90.33341569 82.80728412 -88.95224635 79.473231 -86 76 C-85.13375 75.7525 -84.2675 75.505 -83.375 75.25 C-82.59125 74.8375 -81.8075 74.425 -81 74 C-80.38276918 72.04081822 -80.38276918 72.04081822 -80.05859375 69.671875 C-78.98030501 63.65875391 -77.3878521 57.8637963 -75.6875 52 C-75.40455078 50.98421875 -75.12160156 49.9684375 -74.83007812 48.921875 C-72.88646333 42.19895022 -70.35364157 36.14169051 -67 30 C-66.34 30 -65.68 30 -65 30 C-64.7421875 29.38640625 -64.484375 28.7728125 -64.21875 28.140625 C-62.13809599 24.48614296 -58.90725015 23.25083586 -55 22 C-51.62279081 21.59631027 -48.36575892 21.46197906 -45 22 C-43 24 -43 24 -42.625 26.375 C-43 29 -43 29 -45 30.8125 C-47.47504976 33.51958568 -47.30242005 35.21733085 -47.20898438 38.78198242 C-46.86566922 42.42569528 -45.86102738 45.77502472 -44.75 49.25 C-44.52473633 49.98581299 -44.29947266 50.72162598 -44.06738281 51.47973633 C-42.41937893 56.81831592 -40.6572081 62.11831641 -38.796875 67.38671875 C-37.26700193 72.40380249 -36.87941909 77.14771776 -36.9375 82.375 C-36.94652344 83.43460937 -36.95554687 84.49421875 -36.96484375 85.5859375 C-36.97644531 86.38257813 -36.98804688 87.17921875 -37 88 C-35.68 87.67 -34.36 87.34 -33 87 C-33 86.34 -33 85.68 -33 85 C-31.1875 82.875 -31.1875 82.875 -29 81 C-28.01 81 -27.02 81 -26 81 C-26.01160156 80.23042969 -26.02320313 79.46085937 -26.03515625 78.66796875 C-26.13913525 65.43292751 -25.54171994 52.22171249 -25 39 C-26.65 38.67 -28.3 38.34 -30 38 C-30.125 31.25 -30.125 31.25 -29 29 C-26.4375 28.375 -26.4375 28.375 -24 28 C-23.93006836 27.39003174 -23.86013672 26.78006348 -23.78808594 26.15161133 C-23.45926231 23.36956252 -23.1049009 20.59133749 -22.75 17.8125 C-22.64042969 16.85279297 -22.53085937 15.89308594 -22.41796875 14.90429688 C-21.71309308 9.54353187 -21.12748564 5.84149881 -17 2 C-11.14389113 -1.51366532 -6.616095 -1.10490118 0 0 Z M38.484375 40.44921875 C36.04072477 43.00219017 34.53474582 45.84143828 33 49 C32.443125 50.051875 31.88625 51.10375 31.3125 52.1875 C28.2053968 59.83705299 28.91952908 68.80876077 28.875 76.9375 C28.87024658 77.65921387 28.86549316 78.38092773 28.8605957 79.12451172 C28.87242206 82.87477974 29.10107791 86.35437151 30 90 C30.99 90 31.98 90 33 90 C39.31475539 78.49812412 41.74289747 66.1733471 43.75 53.3125 C43.97185087 51.94322864 44.1945037 50.57408697 44.41796875 49.20507812 C45.53388233 43.13326593 45.53388233 43.13326593 46 37 C42.41126794 37 41.12135965 38.13206639 38.484375 40.44921875 Z M-64 52 C-69.85898604 64.96491605 -69.85898604 64.96491605 -71.9140625 78.7734375 C-71.17700324 81.19071511 -71.17700324 81.19071511 -68.78515625 82.36328125 C-67.88667969 82.67652344 -66.98820312 82.98976563 -66.0625 83.3125 C-64.71865234 83.80169922 -64.71865234 83.80169922 -63.34765625 84.30078125 C-61.0887968 85.09514847 -61.0887968 85.09514847 -59 85 C-58.85299716 78.40491802 -59.36035768 72.19974755 -60.375 65.6875 C-60.50132812 64.80771484 -60.62765625 63.92792969 -60.7578125 63.02148438 C-60.88671875 62.17263672 -61.015625 61.32378906 -61.1484375 60.44921875 C-61.26364746 59.68955811 -61.37885742 58.92989746 -61.49755859 58.1472168 C-62.03095094 55.8677291 -62.87533156 54.04545809 -64 52 Z M-76 96 C-75.01 97.32 -74.02 98.64 -73 100 C-68.34602225 100.41955355 -68.34602225 100.41955355 -64 99 C-64 98.34 -64 97.68 -64 97 C-67.96 96.67 -71.92 96.34 -76 96 Z " fill="#BAC3FB" transform="translate(284,143)"/>
<path d="M0 0 C2.64471699 1.48104151 4.10100579 2.74617681 6.25 5 C10.27919513 8.70189356 16.27049005 7.97826158 21.421875 8.07421875 C24.6875 8.3125 24.6875 8.3125 26.6875 10.3125 C26.3125 13.9375 26.3125 13.9375 25.6875 17.3125 C22.3875 17.9725 19.0875 18.6325 15.6875 19.3125 C15.71368408 20.0152002 15.73986816 20.71790039 15.7668457 21.44189453 C16.29469441 37.88137511 15.23473603 52.50435873 10.6875 68.3125 C10.32244386 69.6704459 9.95782682 71.02850996 9.59375 72.38671875 C5.00370024 88.33714165 -1.3911681 104.17477223 -10 118.375 C-10.42684082 119.08188965 -10.85368164 119.7887793 -11.29345703 120.51708984 C-14.40897212 125.4261344 -18.1177973 129.31387798 -22.3125 133.3125 C-23.116875 134.17875 -23.92125 135.045 -24.75 135.9375 C-32.39810992 143.02599212 -40.63778801 145.82648938 -51.03125 145.5703125 C-54.94604951 145.12788653 -58.83522564 144.19861087 -62.3125 142.3125 C-62.6425 141.3225 -62.9725 140.3325 -63.3125 139.3125 C-63.910625 139.044375 -64.50875 138.77625 -65.125 138.5 C-69.6790899 136.02777977 -71.387672 131.53990067 -72.9140625 126.82421875 C-74.58729218 121.04970902 -74.72966681 115.60349144 -74.625 109.625 C-74.6151709 108.56120117 -74.6053418 107.49740234 -74.59521484 106.40136719 C-74.48623403 99.70566724 -73.9421722 93.23833009 -72.890625 86.62109375 C-71.98794685 80.49117221 -71.62982293 74.3014658 -71.1875 68.125 C-71.05625732 66.3601123 -71.05625732 66.3601123 -70.92236328 64.55957031 C-70.23175398 54.66315287 -69.71294244 44.78746247 -71.125 34.9375 C-71.27582031 33.81601563 -71.42664063 32.69453125 -71.58203125 31.5390625 C-72.35968004 28.10410048 -73.61724303 25.38718524 -75.3125 22.3125 C-76.75111294 22.39996284 -78.18847508 22.50815348 -79.625 22.625 C-80.42550781 22.68300781 -81.22601563 22.74101562 -82.05078125 22.80078125 C-84.69992483 23.4001557 -85.51723841 24.34876811 -87.3125 26.3125 C-87.9725 26.3125 -88.6325 26.3125 -89.3125 26.3125 C-89.59351562 27.055 -89.87453125 27.7975 -90.1640625 28.5625 C-91.17966242 30.99441273 -92.34553029 33.05593946 -93.6875 35.3125 C-100.10044021 48.00517396 -102.42137255 66.07970716 -99.5 79.9375 C-98.60702444 83.25215401 -98.60702444 83.25215401 -96.6875 84.9375 C-95.3125 86.3125 -95.3125 86.3125 -95.0625 89.4375 C-95.3125 92.3125 -95.3125 92.3125 -96.3125 93.3125 C-101.9427521 93.87552521 -101.9427521 93.87552521 -104.3125 93.3125 C-111.11196399 87.63089661 -113.7149348 80.08369582 -114.60791016 71.45947266 C-115.7890417 52.49857368 -113.30342398 36.21052494 -100.6015625 21.3046875 C-99 19.625 -99 19.625 -96.3125 17.3125 C-95.6525 17.3125 -94.9925 17.3125 -94.3125 17.3125 C-94.3125 16.6525 -94.3125 15.9925 -94.3125 15.3125 C-84.34255853 9.13793398 -74.20868398 6.5440838 -62.5625 9.15234375 C-57.36640682 11.00719913 -53.78875527 13.73908825 -51.01953125 18.56640625 C-41.62211891 39.15929177 -48.27665482 65.69196992 -52.86499023 86.86157227 C-53.68392798 91.34674197 -53.7392689 95.8898453 -53.9375 100.4375 C-53.9890625 101.41976562 -54.040625 102.40203125 -54.09375 103.4140625 C-55.09948598 116.59759072 -55.09948598 116.59759072 -50.3125 128.3125 C-47.28291361 129.8272932 -44.58699475 129.83617839 -41.3125 129.3125 C-34.13503264 126.74747561 -26.82934292 122.34618584 -23.3125 115.3125 C-22.6525 115.3125 -21.9925 115.3125 -21.3125 115.3125 C-21.044375 114.425625 -20.77625 113.53875 -20.5 112.625 C-19.10879275 108.74426398 -17.17152991 105.60699382 -14.90234375 102.1875 C-12.88589076 98.54103955 -11.60403477 94.82687919 -10.3125 90.875 C-10.05049805 90.07731201 -9.78849609 89.27962402 -9.51855469 88.45776367 C-2.89829969 67.84057479 1.97202972 42.47660691 -5.3125 21.3125 C-7.3499661 18.65180897 -9.7845675 17.42771734 -12.75 15.9375 C-16.5124409 13.87521592 -19.26414659 12.22299287 -21.3125 8.3125 C-21.375 4.6875 -21.375 4.6875 -20.3125 1.3125 C-15.36340177 -3.80156817 -6.00787011 -2.84218471 0 0 Z " fill="#BAC2FA" transform="translate(137.3125,115.6875)"/>
<path d="M0 0 C1.99954746 -0.04254356 4.00041636 -0.04080783 6 0 C6.33 0.33 6.66 0.66 7 1 C6.95182936 6.63596518 5.79858008 12.05567966 4.4375 17.5 C3.06546682 23.11467948 2.64907861 28.24228984 3 34 C3.66 34 4.32 34 5 34 C5 33.34 5 32.68 5 32 C5.66 32 6.32 32 7 32 C8.46030351 28.50115733 9.63000863 25.01597768 10.65625 21.3671875 C10.95660156 20.31402344 11.25695312 19.26085937 11.56640625 18.17578125 C12.19084836 15.96802566 12.81323136 13.75968668 13.43359375 11.55078125 C13.73394531 10.50019531 14.03429687 9.44960937 14.34375 8.3671875 C14.74883789 6.93028564 14.74883789 6.93028564 15.16210938 5.46435547 C16 3 16 3 18 0 C20.625 -0.1875 20.625 -0.1875 23 0 C23.34378302 7.29583962 22.88226433 13.51704064 20.734375 20.5078125 C19.80251226 23.67019776 19.36344051 26.72903544 19 30 C20.32 30.33 21.64 30.66 23 31 C23.4375 33.625 23.4375 33.625 23 37 C21.53808594 38.25537109 21.53808594 38.25537109 19.671875 39.5234375 C14.8576113 43.44824815 14.07863659 48.12512624 12.8125 54 C9.44664756 68.79797517 9.44664756 68.79797517 3.75 72.4375 C-0.04393995 73.21353317 -3.29301724 73.18654469 -7 72 C-10.02427337 69.36345398 -10.86642544 67.48086841 -11.9375 63.625 C-12.03388514 58.034662 -10.3516937 54.49397725 -6.625 50.375 C-5.75875 49.59125 -4.8925 48.8075 -4 48 C-3.071875 47.071875 -2.14375 46.14375 -1.1875 45.1875 C-0.465625 44.465625 0.25625 43.74375 1 43 C0.030625 42.401875 -0.93875 41.80375 -1.9375 41.1875 C-5 39 -5 39 -6 36 C-7.04841554 23.66095555 -4.24606542 11.52503472 0 0 Z M1.17578125 52.57421875 C0.25345703 53.62029297 0.25345703 53.62029297 -0.6875 54.6875 C-1.31011719 55.37199219 -1.93273437 56.05648437 -2.57421875 56.76171875 C-4.28474872 59.44701648 -4.52367368 60.87351256 -4 64 C-2.515 64.99 -2.515 64.99 -1 66 C2.46101743 62.99663777 3.69352564 60.68719232 4.75 56.25 C4.99234375 55.26515625 5.2346875 54.2803125 5.484375 53.265625 C5.65453125 52.51796875 5.8246875 51.7703125 6 51 C2.97694713 50.67333782 2.97694713 50.67333782 1.17578125 52.57421875 Z " fill="#D8BBF6" transform="translate(444,204)"/>
<path d="M0 0 C2.13027564 4.20950633 2.00030412 6.63876529 0.8828125 11.17578125 C0.60566406 12.33271484 0.32851563 13.48964844 0.04296875 14.68164062 C-0.25996094 15.87982422 -0.56289063 17.07800781 -0.875 18.3125 C-1.17019531 19.53001953 -1.46539063 20.74753906 -1.76953125 22.00195312 C-2.49964902 25.00485686 -3.24353973 28.00364377 -4 31 C-2.35 31 -0.7 31 1 31 C1.8125 32.6875 1.8125 32.6875 2 35 C-0.1875 37.4375 -0.1875 37.4375 -3 40 C-6.72503194 43.94168483 -7.67341727 46.98865466 -8.5 52.3125 C-9.75509604 59.4888293 -11.2673558 64.96372867 -16.25 70.5 C-20.6271757 72.88755038 -24.55007238 72.70918957 -29.375 71.3125 C-31.80895848 69.34661046 -32.29327689 68.08388265 -33 65 C-33.36022895 59.18630508 -32.59250508 55.10373686 -28.75 50.625 C-26.01821987 47.84252704 -23.15762945 45.29645778 -20 43 C-20.763125 42.62875 -21.52625 42.2575 -22.3125 41.875 C-25.76122723 39.46891123 -26.70769981 38.02048949 -28 34 C-28.42689596 23.29344932 -24.54428494 12.43397208 -18 4 C-12.22289935 -1.63267313 -7.50916424 -1.14546573 0 0 Z M-8 6 C-14.40689013 10.4925689 -17.29200701 16.87048172 -20 24 C-20.48845284 27.44487794 -20.49919291 30.5611155 -20 34 C-19.01 34 -18.02 34 -17 34 C-10.68845223 26.99838967 -8.53339656 17.05232729 -7 8 C-7.33 7.34 -7.66 6.68 -8 6 Z M-20.5 52.875 C-21.1290625 53.40867187 -21.758125 53.94234375 -22.40625 54.4921875 C-24.10719145 55.92906433 -24.10719145 55.92906433 -25 58 C-25.039992 59.99960012 -25.04346799 62.00047242 -25 64 C-23.68 64 -22.36 64 -21 64 C-17.04993234 59.48563696 -16.3976722 55.76624693 -16 50 C-17.85937218 50 -19.15138553 51.71983433 -20.5 52.875 Z " fill="#D8BAF5" transform="translate(534,204)"/>
<path d="M0 0 C6.82482254 21.15153335 -1.90145102 41.22044656 -11.42260742 59.88598633 C-19.75289663 75.79186088 -19.75289663 75.79186088 -24 80 C-26.703125 80.75 -26.703125 80.75 -29 81 C-31.2090763 77.68638554 -31.44127628 75.95576954 -31.89453125 72.05078125 C-32.0430957 70.82520508 -32.19166016 69.59962891 -32.34472656 68.33691406 C-32.42082153 67.68178833 -32.4969165 67.0266626 -32.57531738 66.35168457 C-32.98161199 62.85855463 -33.41266245 59.36856479 -33.84765625 55.87890625 C-33.93792084 55.15359711 -34.02818542 54.42828796 -34.1211853 53.68099976 C-34.77742709 48.50935371 -35.54020843 43.36116432 -36.37109375 38.21484375 C-36.48592606 37.50189651 -36.60075836 36.78894928 -36.71907043 36.05439758 C-37.27476062 32.62552234 -37.84338947 29.19921691 -38.42504883 25.7746582 C-39.61411371 18.52682456 -40.65516671 11.35886148 -40 4 C-39 3 -39 3 -36.4375 2.9375 C-35.2309375 2.9684375 -35.2309375 2.9684375 -34 3 C-31.606539 8.90111936 -31.17091192 14.97586764 -30.5 21.25 C-29.74914146 28.17275073 -28.90301284 34.98258382 -27.45947266 41.79785156 C-26.84008644 44.76642951 -26.38142518 47.75070717 -25.9375 50.75 C-25.32798494 54.8402994 -24.68977408 58.92239747 -24 63 C-20.74497428 60.25198763 -19.00301203 56.64958428 -17.0625 52.9375 C-16.70841064 52.26283691 -16.35432129 51.58817383 -15.98950195 50.89306641 C-8.85054739 37.11509788 -3.60655117 22.18483041 -6.6875 6.5 C-7 4 -7 4 -5.8125 1.625 C-4 0 -4 0 0 0 Z " fill="#D7BDF4" transform="translate(408,166)"/>
<path d="M0 0 C2.27617245 2.00270743 3.77067118 4.23442356 5 7 C5.16998267 9.90574156 4.54256868 12.44853662 3.8125 15.25 C3.48387911 16.74717724 3.16225102 18.24590659 2.84765625 19.74609375 C2.6158667 20.83253174 2.6158667 20.83253174 2.37939453 21.94091797 C1.46722387 26.89152761 1.25236092 32.30367584 2.60546875 37.18359375 C2.73566406 37.78300781 2.86585938 38.38242188 3 39 C1.5625 40.75 1.5625 40.75 0 42 C-3.31216727 41.01530162 -4.73502323 40.37853825 -6.75 37.5 C-7.5 36 -8.25 34.5 -9 33 C-9.66 33 -10.32 33 -11 33 C-11.33 33.99 -11.66 34.98 -12 36 C-12.66 36 -13.32 36 -14 36 C-14.33 36.99 -14.66 37.98 -15 39 C-18.44161314 41.51502499 -21.8674838 41.30611231 -26 41 C-28.58110626 38.41889374 -28.38658571 37.22590373 -28.5 33.625 C-28.29803414 21.59360549 -20.4576198 11.15359867 -12.125 3 C-7.89210301 -0.51257609 -5.40071861 -1.23950919 0 0 Z M-8.55078125 10.43359375 C-12.67255811 15.12200068 -16.85482084 20.05606607 -19 26 C-18.70458295 28.20868388 -18.70458295 28.20868388 -18 30 C-12.27237718 23.44805429 -8.20287387 17.09957528 -5 9 C-7.10721406 8.77372744 -7.10721406 8.77372744 -8.55078125 10.43359375 Z " fill="#D8BDF4" transform="translate(498,204)"/>
<path d="M0 0 C2.89959892 2.68150943 3.90122538 4.30690353 4.4609375 8.234375 C4.14479291 21.16756285 2.78225217 30.69549311 -6.875 40.0625 C-11.09139918 42.67666749 -13.10093218 42.63213778 -18 42 C-21.28065117 40.53234027 -21.86817782 39.30130785 -23.3125 36 C-25.58167315 26.39653507 -22.4919987 15.98282484 -17.625 7.6875 C-13.16037747 1.08934104 -8.14965824 -2.13348777 0 0 Z M-6 7 C-11.75463403 10.74051212 -14.16038315 15.17149606 -15.6484375 21.8046875 C-16.23796437 25.48595529 -16.71045805 29.31784106 -16 33 C-14.515 33.99 -14.515 33.99 -13 35 C-6.47063421 28.47063421 -2.78332763 20.63172804 -2.75 11.25 C-2.8325 10.1775 -2.915 9.105 -3 8 C-3.99 7.67 -4.98 7.34 -6 7 Z " fill="#D7BCF3" transform="translate(430,204)"/>
<path d="M0 0 C1.64480616 4.93441849 1.5902043 9.26410499 -0.0625 14.125 C-3.86452241 19.76671067 -8.78717316 23.27241748 -15 26 C-15 28.64 -15 31.28 -15 34 C-13.948125 33.505 -12.89625 33.01 -11.8125 32.5 C-8.74547391 31.17220212 -6.37865064 30.69284994 -3 31 C-2.25 32.75 -2.25 32.75 -2 35 C-4.25151888 37.835246 -6.55998482 39.85332827 -10 41 C-16.98652291 41.77628032 -16.98652291 41.77628032 -20.9375 38.75 C-24.52039683 33.97280423 -24.61011921 28.84697578 -24 23 C-22.08404097 14.48231257 -19.43456808 6.16580638 -12.9375 0.0625 C-8.14229239 -2.56712998 -5.16294017 -1.94827931 0 0 Z M-8 6 C-11.01704885 9.1999003 -12.49890042 11.61537866 -13 16 C-10.47753497 14.97296178 -10.47753497 14.97296178 -8 13 C-6.63099646 9.42003741 -6.63099646 9.42003741 -6 6 C-6.66 6 -7.32 6 -8 6 Z " fill="#D7BBF5" transform="translate(561,205)"/>
<path d="M0 0 C2.89728868 1.2328888 4.39683427 2.2245012 6.3125 4.6875 C7.86127602 9.89701933 7.70539094 13.63960319 5.25 18.375 C2.67449318 21.37975795 0.83622135 22.83974795 -3.1484375 23.1875 C-8.20937396 22.76131588 -11.57817928 21.80580285 -14.9609375 17.875 C-16.94173548 14.3006277 -16.95815659 10.91655249 -16 7 C-12.0766073 0.10172713 -7.39087338 -0.71607078 0 0 Z " fill="#BBC3FA" transform="translate(188,142)"/>
<path d="M0 0 C2.375 -0.1875 2.375 -0.1875 5 0 C7.4822593 3.72338895 7.13808303 5.14329907 6.53515625 9.3984375 C4.58250465 18.89088983 1.06395499 25.63937209 -6.25 31.9375 C-10.50236226 33.58045814 -14.50653156 33.66249855 -19 33 C-22.4375 31.1875 -22.4375 31.1875 -25 29 C-25.556875 28.54625 -26.11375 28.0925 -26.6875 27.625 C-28.6203842 25.23190527 -29.83914775 22.844088 -31 20 C-30.6875 17.625 -30.6875 17.625 -30 16 C-29.731875 16.556875 -29.46375 17.11375 -29.1875 17.6875 C-28.795625 18.450625 -28.40375 19.21375 -28 20 C-27.5875 20.804375 -27.175 21.60875 -26.75 22.4375 C-24.07714513 26.3513232 -21.54958369 29.51886163 -16.78515625 30.41796875 C-12.08468017 30.58221167 -8.74474883 30.0638854 -5 27 C-4.34 26.01 -3.68 25.02 -3 24 C-2.34 24 -1.68 24 -1 24 C-0.01 20.7 0.98 17.4 2 14 C2.66 14 3.32 14 4 14 C4 10.37 4 6.74 4 3 C2.68 2.34 1.36 1.68 0 1 C0 0.67 0 0.34 0 0 Z " fill="#BBC0E9" transform="translate(361,221)"/>
<path d="M0 0 C3.86090491 2.08697562 5.27762876 4.81570709 6.6262207 8.89355469 C8.25563142 15.67909065 8.26202838 22.29924779 8.1875 29.25 C8.18685547 30.40757812 8.18621094 31.56515625 8.18554688 32.7578125 C8.16010034 37.65485707 8.09885752 42.20996772 7 47 C6.67 47 6.34 47 6 47 C5.98018066 46.34628418 5.96036133 45.69256836 5.93994141 45.01904297 C6.1210617 23.32535962 6.1210617 23.32535962 0 3 C-7.13601646 3.28282126 -7.13601646 3.28282126 -13 7 C-12.69611836 4.06247746 -12.19330344 3.15919107 -9.875 1.25 C-6.30459786 -0.30234876 -3.8599861 -0.42108939 0 0 Z " fill="#BEC4EA" transform="translate(62,135)"/>
<path d="M0 0 C2 2 2 2 2.375 4.375 C2 7 2 7 0 8.8125 C-2.4740991 11.51854589 -2.30599039 13.21805109 -2.21337891 16.78198242 C-1.86229078 20.43145112 -0.81802461 23.77557733 0.3125 27.25 C0.77280015 28.73246366 1.23112168 30.21554306 1.6875 31.69921875 C1.91179687 32.42286621 2.13609375 33.14651367 2.3671875 33.89208984 C3.76412179 38.54530384 4.8799487 43.2739299 6 48 C5.01 48 4.02 48 3 48 C2.80664062 47.09636719 2.61328125 46.19273437 2.4140625 45.26171875 C2.15367187 44.08222656 1.89328125 42.90273437 1.625 41.6875 C1.36976563 40.51574219 1.11453125 39.34398437 0.8515625 38.13671875 C0.14304469 34.87079555 0.14304469 34.87079555 -2 32 C-4.12018759 24.48773039 -5.25027325 15.72414577 -4 8 C-1.9765625 5.62109375 -1.9765625 5.62109375 0 4 C-4.38436379 1.80781811 -10.36901402 2.84225351 -15 4 C-15 3.34 -15 2.68 -15 2 C-10.29669569 -0.50842897 -5.21221812 -0.62731121 0 0 Z " fill="#C1C5EA" transform="translate(239,165)"/>
<path d="M0 0 C0.79921875 0.00902344 1.5984375 0.01804688 2.421875 0.02734375 C3.02515625 0.03894531 3.6284375 0.05054688 4.25 0.0625 C4.25 0.7225 4.25 1.3825 4.25 2.0625 C3.48816406 2.13726562 2.72632813 2.21203125 1.94140625 2.2890625 C-7.0124445 3.42925323 -13.83177611 6.02581473 -19.5625 13.25 C-23.32003908 19.10657815 -25.31646832 25.958026 -26.875 32.6875 C-27.16375 33.80125 -27.4525 34.915 -27.75 36.0625 C-28.74 36.5575 -28.74 36.5575 -29.75 37.0625 C-28.93818286 24.88524297 -25.56821199 14.78486186 -16.75 6.0625 C-11.40776439 1.86226403 -6.82232138 -0.10032826 0 0 Z " fill="#C2C6EB" transform="translate(324.75,167.9375)"/>
<path d="M0 0 C0.99 0 1.98 0 3 0 C4.13693933 21.72043951 4.39278742 41.22978771 -3 62 C-3.66 62 -4.32 62 -5 62 C-4.81824219 61.38898438 -4.63648438 60.77796875 -4.44921875 60.1484375 C0.93625359 40.53979461 2.43994419 20.17311002 0 0 Z " fill="#C1C5EA" transform="translate(134,140)"/>
<path d="M0 0 C0.33 0 0.66 0 1 0 C1.0270043 1.45823212 1.04639787 2.91660675 1.0625 4.375 C1.07410156 5.18710938 1.08570313 5.99921875 1.09765625 6.8359375 C1 9 1 9 0 11 C-0.14856188 15.53113746 -0.10529324 19.57882704 1 24 C1.66 24 2.32 24 3 24 C3 24.66 3 25.32 3 26 C5.97 26 8.94 26 12 26 C12 25.34 12 24.68 12 24 C14 22.375 14 22.375 16 21 C14.35 20.67 12.7 20.34 11 20 C13 18 13 18 15.625 17.875 C16.40875 17.91625 17.1925 17.9575 18 18 C18.75 19.75 18.75 19.75 19 22 C16.74848112 24.835246 14.44001518 26.85332827 11 28 C4.01347709 28.77628032 4.01347709 28.77628032 0.0625 25.75 C-3.54062893 20.9458281 -3.54144169 15.83854624 -3 10 C-2.18585809 6.59669748 -1.15777019 3.30102335 0 0 Z " fill="#D9C3EE" transform="translate(540,218)"/>
<path d="M0 0 C0.66 0.33 1.32 0.66 2 1 C1.67 5.95 1.34 10.9 1 16 C3.124375 16.144375 5.24875 16.28875 7.4375 16.4375 C13.875 16.875 13.875 16.875 15 18 C15.1875 21.4375 15.1875 21.4375 15 25 C13 27 13 27 9.7421875 27.1953125 C6.16145833 27.13020833 2.58072917 27.06510417 -1 27 C-1.33 32.94 -1.66 38.88 -2 45 C-2.33 45 -2.66 45 -3 45 C-3 38.73 -3 32.46 -3 26 C1.98046875 25.65820312 1.98046875 25.65820312 6.9609375 25.31640625 C9.91518901 25.18915064 9.91518901 25.18915064 12 24 C12 22.68 12 21.36 12 20 C8.68021436 19.47924931 5.48944575 19 2.125 19 C1.42375 19 0.7225 19 0 19 C-1 18 -1 18 -1.1328125 15.48828125 C-1.10696517 4.98134328 -1.10696517 4.98134328 0 0 Z " fill="#BEC3E7" transform="translate(281,155)"/>
<path d="M0 0 C0.66 0.33 1.32 0.66 2 1 C1.57293819 3.52299636 1.13370614 6.04287824 0.6875 8.5625 C0.56955078 9.26697266 0.45160156 9.97144531 0.33007812 10.69726562 C-1.13216846 18.8333556 -3.92248877 25.16961066 -10.0625 30.9375 C-12.37074574 33.39466482 -13.6116007 35.94552154 -15 39 C-15.66 39 -16.32 39 -17 39 C-15.4601094 33.64538041 -14.10698679 28.98253264 -10 25 C-7.87109375 24.375 -7.87109375 24.375 -6 24 C-5.90203125 23.44054687 -5.8040625 22.88109375 -5.703125 22.3046875 C-4.28944095 14.72441612 -2.19292082 7.38780121 0 0 Z " fill="#BDC1EA" transform="translate(209,193)"/>
<path d="M0 0 C1.2065625 0.0309375 1.2065625 0.0309375 2.4375 0.0625 C4.06599969 4.41840568 4.77868446 8.30184612 5.0625 12.9375 C5.13726562 14.08992187 5.21203125 15.24234375 5.2890625 16.4296875 C5.33804687 17.29851562 5.38703125 18.16734375 5.4375 19.0625 C4.7775 18.7325 4.1175 18.4025 3.4375 18.0625 C2.81080801 15.89782539 2.28322626 13.70385476 1.8125 11.5 C1.55210937 10.30246094 1.29171875 9.10492188 1.0234375 7.87109375 C0.83007812 6.94425781 0.63671875 6.01742187 0.4375 5.0625 C-0.2225 5.0625 -0.8825 5.0625 -1.5625 5.0625 C-1.3975 5.97 -1.2325 6.8775 -1.0625 7.8125 C-0.27376689 13.20032475 -0.48224077 18.63162556 -0.5625 24.0625 C-0.8925 24.0625 -1.2225 24.0625 -1.5625 24.0625 C-3.05967688 16.40283613 -4.19363794 8.88567498 -3.5625 1.0625 C-2.5625 0.0625 -2.5625 0.0625 0 0 Z " fill="#DAC4F0" transform="translate(371.5625,168.9375)"/>
<path d="M0 0 C0.33 0 0.66 0 1 0 C1 14.85 1 29.7 1 45 C-2.28136564 41.71863436 -1.80588442 37.42036064 -2.1875 32.9375 C-2.27354492 31.95410645 -2.35958984 30.97071289 -2.44824219 29.95751953 C-2.93403771 23.73187858 -3.1081322 17.61010246 -2.75 11.375 C-2.71156982 10.68398193 -2.67313965 9.99296387 -2.63354492 9.28100586 C-2.36431755 5.77047487 -1.865848 3.0128857 0 0 Z " fill="#B9BFEB" transform="translate(182,195)"/>
<path d="M0 0 C1.64574462 5.04825632 2.27170384 9.32122542 2.25 14.6875 C2.25515625 15.97011719 2.2603125 17.25273437 2.265625 18.57421875 C2 22 2 22 0 26 C-0.33 18.74 -0.66 11.48 -1 4 C-1.99 3.67 -2.98 3.34 -4 3 C-3.91621094 4.07378906 -3.83242188 5.14757812 -3.74609375 6.25390625 C-3.6428397 7.69007622 -3.53999706 9.12627581 -3.4375 10.5625 C-3.38142578 11.26697266 -3.32535156 11.97144531 -3.26757812 12.69726562 C-2.94842246 17.31438431 -3.19121965 21.4408752 -4 26 C-4.33 26 -4.66 26 -5 26 C-5.06058594 24.91460937 -5.12117188 23.82921875 -5.18359375 22.7109375 C-5.26806064 21.26561514 -5.35270551 19.82030318 -5.4375 18.375 C-5.47681641 17.66214844 -5.51613281 16.94929688 -5.55664062 16.21484375 C-5.75128541 12.95080049 -6.02701849 9.85035915 -6.609375 6.625 C-7 4 -7 4 -5.8125 1.625 C-4 0 -4 0 0 0 Z " fill="#D3BEE9" transform="translate(408,166)"/>
<path d="M0 0 C0.33 0 0.66 0 1 0 C0.9278125 0.64839844 0.855625 1.29679688 0.78125 1.96484375 C0.0355862 9.84609587 -0.17053667 17.71197132 -0.25 25.625 C-0.27126953 26.67292725 -0.29253906 27.72085449 -0.31445312 28.80053711 C-0.34458672 35.66292527 -0.01346977 42.71083473 3 49 C5.00653947 50.33708012 5.00653947 50.33708012 7 51 C4.6875 51.625 4.6875 51.625 2 52 C-1 50 -1 50 -1.50512695 48.2434082 C-2.10200617 40.35589275 -2.18612168 32.47354875 -2.18530273 24.56665039 C-2.18751144 22.1751176 -2.20579058 19.78403105 -2.22460938 17.39257812 C-2.22754024 15.85937656 -2.22952709 14.32617283 -2.23046875 12.79296875 C-2.23765427 12.08456345 -2.24483978 11.37615814 -2.25224304 10.64628601 C-2.23385332 6.6530672 -1.76084343 3.59627299 0 0 Z " fill="#BABFE4" transform="translate(347,192)"/>
<path d="M0 0 C3 1 3 1 4.15917969 3.02270508 C7.06350517 10.72112811 7.48866862 17.51309993 7.25 25.6875 C7.23195313 26.87794922 7.21390625 28.06839844 7.1953125 29.29492188 C7.14868489 32.19749031 7.08326281 35.09829111 7 38 C6.34 38 5.68 38 5 38 C4.98018066 37.39115967 4.96036133 36.78231934 4.93994141 36.1550293 C4.66966349 17.6872249 4.66966349 17.6872249 0 0 Z " fill="#BDC1E8" transform="translate(83,133)"/>
<path d="M0 0 C0.33 0 0.66 0 1 0 C1.05556738 1.47870971 1.09347512 2.95808244 1.125 4.4375 C1.14820312 5.26121094 1.17140625 6.08492187 1.1953125 6.93359375 C1.03363135 9.47198787 0.67555218 11.46806534 0.0625 13.90625 C-1.49605343 20.53252219 -1.71760863 27.287114 -2.125 34.0625 C-2.21159453 35.41866113 -2.29882935 36.77478154 -2.38671875 38.13085938 C-2.5974257 41.42022898 -2.80167997 44.70986427 -3 48 C-3.33 48 -3.66 48 -4 48 C-4.80016414 9.60032827 -4.80016414 9.60032827 0 0 Z " fill="#BCC0E5" transform="translate(85,186)"/>
<path d="M0 0 C1.2065625 0.0309375 1.2065625 0.0309375 2.4375 0.0625 C2.80551906 7.99535519 2.21226512 14.5970605 -0.5625 22.0625 C-0.8925 22.0625 -1.2225 22.0625 -1.5625 22.0625 C-1.41735591 20.58326554 -1.27133578 19.10411704 -1.125 17.625 C-1.03605469 16.72007812 -0.94710938 15.81515625 -0.85546875 14.8828125 C-0.58199626 12.25018398 -0.26266164 9.62663037 0.0625 7 C0.18625 5.700625 0.31 4.40125 0.4375 3.0625 C0.1075 2.7325 -0.2225 2.4025 -0.5625 2.0625 C-0.67207031 2.63097656 -0.78164063 3.19945312 -0.89453125 3.78515625 C-1.94188166 8.88566758 -3.35521753 13.346942 -5.5625 18.0625 C-5.8925 18.0625 -6.2225 18.0625 -6.5625 18.0625 C-6.96123011 11.94863837 -5.68365707 6.79951549 -3.5625 1.0625 C-2.5625 0.0625 -2.5625 0.0625 0 0 Z " fill="#D3BFE9" transform="translate(464.5625,203.9375)"/>
<path d="M0 0 C0.99 0.33 1.98 0.66 3 1 C4.02734375 3.14453125 4.02734375 3.14453125 4.9375 5.8125 C6.39762506 9.69876441 7.53017646 12.50606433 11 15 C15.40782081 16.82392585 20.50085197 16.51034827 24.9375 15 C25.618125 14.67 26.29875 14.34 27 14 C27 14.66 27 15.32 27 16 C23.29779839 19.10507232 19.93421967 19.548557 15.26953125 19.32421875 C11.42059943 18.77437135 8.69429925 17.75203423 6 15 C0 5.37610619 0 5.37610619 0 0 Z " fill="#C0C4EA" transform="translate(165,235)"/>
<path d="M0 0 C0.66 0 1.32 0 2 0 C0.79402303 5.60109302 -1.74688671 10.75906256 -4 16 C-4.495 17.216875 -4.99 18.43375 -5.5 19.6875 C-7 22 -7 22 -9.5625 22.9375 C-12 23 -12 23 -14 22 C-14 19.03 -14 16.06 -14 13 C-13.67 13 -13.34 13 -13 13 C-12.34 15.31 -11.68 17.62 -11 20 C-7.15149864 16.7410563 -5.91283698 13.62741234 -4.375 8.875 C-2.19444444 2.19444444 -2.19444444 2.19444444 0 0 Z " fill="#B9BFE8" transform="translate(292,221)"/>
<path d="M0 0 C2.375 -0.125 2.375 -0.125 5 0 C5.66 0.66 6.32 1.32 7 2 C13.15849547 3.45564438 17.49341327 2.59995549 23.484375 0.69140625 C26 0 26 0 30 0 C30 0.66 30 1.32 30 2 C24.91270113 4.49728083 20.71125825 5.51916718 15 5.4375 C13.9471582 5.43266602 13.9471582 5.43266602 12.87304688 5.42773438 C7.45781866 5.28110355 4.19196716 4.35357373 0 1 C0 0.67 0 0.34 0 0 Z " fill="#B8BDE5" transform="translate(204,250)"/>
<path d="M0 0 C-0.33 0.99 -0.66 1.98 -1 3 C-1.66 3 -2.32 3 -3 3 C-4.79552959 7.41668215 -6.40499859 11.88673431 -8 16.37890625 C-8.8769567 18.67749198 -9.85409543 20.8258507 -11 23 C-11.53088624 14.77126321 -10.12346354 7.97531724 -4.9375 1.375 C-3 0 -3 0 0 0 Z " fill="#C3C5EF" transform="translate(176,172)"/>
<path d="M0 0 C0.99 0 1.98 0 3 0 C3 0.66 3 1.32 3 2 C3.99 2 4.98 2 6 2 C6 2.66 6 3.32 6 4 C6.99 4 7.98 4 9 4 C9 4.66 9 5.32 9 6 C13.4378561 7.11165232 17.76956386 7.11527763 22.3125 7.0625 C23.42334961 7.05573242 23.42334961 7.05573242 24.55664062 7.04882812 C26.37112899 7.03712175 28.18557534 7.01918898 30 7 C27.00510285 9.99489715 23.93536688 10.15988269 19.8125 10.25 C14.98495317 10.19395883 10.27805576 9.32046328 6 7 C5.67 6.01 5.34 5.02 5 4 C3.68352881 3.30062468 2.34977849 2.63270867 1 2 C0.67 1.34 0.34 0.68 0 0 Z " fill="#BFC5E9" transform="translate(69,251)"/>
<path d="M0 0 C0.99 0.495 0.99 0.495 2 1 C5.19715627 1.23098721 8.38713267 1.39485742 11.58984375 1.51757812 C16.78599531 1.78599531 16.78599531 1.78599531 19 4 C18.625 7.625 18.625 7.625 18 11 C15.69 11.33 13.38 11.66 11 12 C12.32 11.67 13.64 11.34 15 11 C15.33 9.02 15.66 7.04 16 5 C14.51886719 4.90912109 14.51886719 4.90912109 13.0078125 4.81640625 C11.72648438 4.73261719 10.44515625 4.64882812 9.125 4.5625 C7.84882813 4.48128906 6.57265625 4.40007812 5.2578125 4.31640625 C2 4 2 4 0 3 C0 2.01 0 1.02 0 0 Z " fill="#C5C9EA" transform="translate(145,122)"/>
<path d="M0 0 C1.65 0.33 3.3 0.66 5 1 C4.9375 3.125 4.9375 3.125 4 6 C2.4453125 7.3515625 2.4453125 7.3515625 0.5625 8.75 C-3.79603138 12.19938987 -4.33406803 15.67254423 -5 21 C-5.20625 22.010625 -5.4125 23.02125 -5.625 24.0625 C-5.74875 24.701875 -5.8725 25.34125 -6 26 C-6.33 26 -6.66 26 -7 26 C-7.45283019 13.27044025 -7.45283019 13.27044025 -3.6875 8.25 C-1.59003335 6.696321 0.54644518 5.8620598 3 5 C3 4.01 3 3.02 3 2 C2.01 2 1.02 2 0 2 C0 1.34 0 0.68 0 0 Z " fill="#D7BDE9" transform="translate(531,235)"/>
<path d="M0 0 C0.33 0 0.66 0 1 0 C-0.11826763 25.36701832 -0.11826763 25.36701832 -5 30 C-4.31035294 23.47487783 -3.46673919 16.98959578 -2.5 10.5 C-2.30470703 9.14261719 -2.30470703 9.14261719 -2.10546875 7.7578125 C-1.97785156 6.89929688 -1.85023438 6.04078125 -1.71875 5.15625 C-1.60466797 4.38087891 -1.49058594 3.60550781 -1.37304688 2.80664062 C-1 1 -1 1 0 0 Z " fill="#C0C6EB" transform="translate(330,181)"/>
<path d="M0 0 C0 0.66 0 1.32 0 2 C-0.76183594 2.07476562 -1.52367187 2.14953125 -2.30859375 2.2265625 C-9.17267138 3.1006398 -13.71997771 4.5296657 -19.16015625 8.85546875 C-20.07087891 9.42201172 -20.07087891 9.42201172 -21 10 C-21.99 9.67 -22.98 9.34 -24 9 C-17.68872914 1.42647497 -9.58131171 -0.61814914 0 0 Z " fill="#CDD0EE" transform="translate(329,168)"/>
<path d="M0 0 C-0.33 0.99 -0.66 1.98 -1 3 C-1.66 3 -2.32 3 -3 3 C-5.86226351 9.88773294 -5.86226351 9.88773294 -5.16796875 16.93359375 C-4.18239823 18.66443667 -3.09715358 20.3376461 -2 22 C-4.86005251 21.7041325 -5.85571743 21.15920836 -7.8125 19 C-9.48569119 14.77299069 -9.04680215 11.36960593 -8 7 C-6.29686409 3.36148238 -4.48944948 0 0 0 Z " fill="#D9C2EB" transform="translate(441,253)"/>
<path d="M0 0 C3.3 0 6.6 0 10 0 C6 2 6 2 3 3 C3 9.27 3 15.54 3 22 C2.34 22 1.68 22 1 22 C0.67 14.74 0.34 7.48 0 0 Z " fill="#BABEE8" transform="translate(150,132)"/>
<path d="M0 0 C2 1 2 1 2.67578125 2.890625 C2.88589844 3.66921875 3.09601562 4.4478125 3.3125 5.25 C4.68456569 9.59487469 6.2841546 12.19045836 10 15 C11.32 15 12.64 15 14 15 C14.66 13.35 15.32 11.7 16 10 C16.33 10 16.66 10 17 10 C17.04254356 11.99954746 17.04080783 14.00041636 17 16 C16 17 16 17 12.25 17.375 C8.83144184 17.3199606 8.09351698 17.06857912 5.1875 14.9375 C1.71339897 10.27227861 -0.53759088 5.91349967 0 0 Z " fill="#C1C3E9" transform="translate(25,192)"/>
<path d="M0 0 C0.7940625 -0.01417969 1.588125 -0.02835938 2.40625 -0.04296875 C4.5 0.1875 4.5 0.1875 6.5 2.1875 C4.5 3.1875 4.5 3.1875 2.1875 2.5625 C-1.3649802 2.06680509 -2.6312242 3.1491593 -5.5 5.1875 C-6.49 5.8475 -7.48 6.5075 -8.5 7.1875 C-9.07748803 9.15111864 -9.07748803 9.15111864 -9.1875 11.3125 C-9.290625 12.59125 -9.39375 13.87 -9.5 15.1875 C-11.5 13.1875 -11.5 13.1875 -11.9375 10.4375 C-11.33204968 5.93986904 -9.64884825 4.41132083 -6.5 1.1875 C-4.14653604 0.01076802 -2.6193967 0.02126134 0 0 Z " fill="#BFC2EA" transform="translate(183.5,141.8125)"/>
<path d="M0 0 C0.268125 0.556875 0.53625 1.11375 0.8125 1.6875 C1.204375 2.450625 1.59625 3.21375 2 4 C2.4125 4.804375 2.825 5.60875 3.25 6.4375 C6.89977947 11.78181994 10.11677182 14.05554328 16.375 15.3125 C17.9138466 15.55989569 19.45487994 15.795409 21 16 C21 16.33 21 16.66 21 17 C14.42931136 17.46747982 10.24350693 17.47616445 5 13 C4.443125 12.54625 3.88625 12.0925 3.3125 11.625 C1.3796158 9.23190527 0.16085225 6.844088 -1 4 C-0.6875 1.625 -0.6875 1.625 0 0 Z " fill="#C6CBED" transform="translate(331,237)"/>
<path d="M0 0 C1.03115279 3.26913624 0.9638984 5.86041348 0.5625 9.25 C0.46066406 10.14203125 0.35882813 11.0340625 0.25390625 11.953125 C0.17011719 12.62859375 0.08632813 13.3040625 0 14 C-0.66 14 -1.32 14 -2 14 C-2 18.95 -2 23.9 -2 29 C-2.66 29.33 -3.32 29.66 -4 30 C-4.51771958 19.70313274 -3.2690178 9.80705341 0 0 Z " fill="#D1BEEB" transform="translate(442,210)"/>
<path d="M0 0 C0.33 0.66 0.66 1.32 1 2 C-1.66074987 7.92137789 -5.0774124 13.81658067 -9 19 C-9.66 19 -10.32 19 -11 19 C-11 19.66 -11 20.32 -11 21 C-11.99 21.33 -12.98 21.66 -14 22 C-12.43888411 18.69136633 -10.5578675 15.68885462 -8.5625 12.625 C-6.61192103 9.59796044 -4.72227813 6.63442572 -3.1875 3.375 C-2 1 -2 1 0 0 Z " fill="#D2BEE8" transform="translate(494,213)"/>
<path d="M0 0 C0.66 0.33 1.32 0.66 2 1 C0.71520959 2.50589388 -0.57804082 4.00457375 -1.875 5.5 C-2.59429687 6.3353125 -3.31359375 7.170625 -4.0546875 8.03125 C-4.69664063 8.6809375 -5.33859375 9.330625 -6 10 C-6.66 10 -7.32 10 -8 10 C-8.33 11.65 -8.66 13.3 -9 15 C-9.66 15 -10.32 15 -11 15 C-11.66 16.32 -12.32 17.64 -13 19 C-12.83486446 12.55971409 -9.12712601 8.5789377 -5 4 C-2.0625 1.4375 -2.0625 1.4375 0 0 Z " fill="#C1C8EC" transform="translate(43,132)"/>
<path d="M0 0 C3 1 3 1 3 1 Z M3.625 1.4375 C4.85089844 1.59025391 4.85089844 1.59025391 6.1015625 1.74609375 C7.04128906 1.87177734 7.04128906 1.87177734 8 2 C8.33 2.99 8.66 3.98 9 5 C7.26043342 6.73956658 4.8063378 6.37190386 2.4375 6.5625 C0.91962891 6.68818359 0.91962891 6.68818359 -0.62890625 6.81640625 C-1.41136719 6.87699219 -2.19382812 6.93757813 -3 7 C-3.33 6.34 -3.66 5.68 -4 5 C-3.34 5 -2.68 5 -2 5 C-2.33 4.01 -2.66 3.02 -3 2 C-0.47946405 0.73973202 0.8542098 1.08125555 3.625 1.4375 Z " fill="#DCBEFA" transform="translate(507,268)"/>
<path d="M0 0 C0.66 0.33 1.32 0.66 2 1 C1.24203125 1.83144531 1.24203125 1.83144531 0.46875 2.6796875 C-0.1809375 3.40414062 -0.830625 4.12859375 -1.5 4.875 C-2.1496875 5.59429687 -2.799375 6.31359375 -3.46875 7.0546875 C-5.20617272 8.84931098 -5.20617272 8.84931098 -5 11 C-5.639375 11.12375 -6.27875 11.2475 -6.9375 11.375 C-7.618125 11.58125 -8.29875 11.7875 -9 12 C-9.33 12.66 -9.66 13.32 -10 14 C-10.66 14 -11.32 14 -12 14 C-10.60089587 9.47301364 -8.4384826 7.24844018 -4.875 4.1875 C-3.96492188 3.39730469 -3.05484375 2.60710937 -2.1171875 1.79296875 C-1.06917969 0.90544922 -1.06917969 0.90544922 0 0 Z " fill="#DAC2EF" transform="translate(514,247)"/>
<path d="M0 0 C0.66 0.99 1.32 1.98 2 3 C1.2575 3.495 0.515 3.99 -0.25 4.5 C-3.65862674 7.59875158 -5.18726063 10.82766134 -7 15 C-7.66 15 -8.32 15 -9 15 C-7.44184004 9.58185288 -6.01544136 5.14497173 -2 1 C-1.34 0.67 -0.68 0.34 0 0 Z " fill="#C3C7F0" transform="translate(201,217)"/>
<path d="M0 0 C1.43739513 -0.02712066 2.87493863 -0.04645067 4.3125 -0.0625 C5.51326172 -0.07990234 5.51326172 -0.07990234 6.73828125 -0.09765625 C9 0 9 0 12 1 C11.91266027 3.08410658 11.80447722 5.16734669 11.6875 7.25 C11.62949219 8.41015625 11.57148438 9.5703125 11.51171875 10.765625 C11 14 11 14 8 18 C8.33 13.05 8.66 8.1 9 3 C4.545 2.01 4.545 2.01 0 1 C0 0.67 0 0.34 0 0 Z " fill="#C2C7E8" transform="translate(339,171)"/>
<path d="M0 0 C7.42857143 -0.14285714 7.42857143 -0.14285714 11 1 C11.33266291 7.20970773 10.45029331 11.28264895 8 17 C6.96884721 13.73086376 7.0361016 11.13958652 7.4375 7.75 C7.53933594 6.85796875 7.64117187 5.9659375 7.74609375 5.046875 C7.82988281 4.37140625 7.91367188 3.6959375 8 3 C5.36 2.34 2.72 1.68 0 1 C0 0.67 0 0.34 0 0 Z " fill="#C5C8E9" transform="translate(177,171)"/>
<path d="M0 0 C3 3.75 3 3.75 3 6 C3.9590625 6.4640625 3.9590625 6.4640625 4.9375 6.9375 C7 8 7 8 8 9 C9.155 9.144375 10.31 9.28875 11.5 9.4375 C12.655 9.623125 13.81 9.80875 15 10 C15.33 10.66 15.66 11.32 16 12 C10.7481833 12.315109 7.45185123 11.8689708 3 9 C0.5625 6.5625 0.5625 6.5625 -1 4 C-0.75 1.6875 -0.75 1.6875 0 0 Z " fill="#BDC0E6" transform="translate(264,242)"/>
<path d="M0 0 C0.33 0 0.66 0 1 0 C2.89932943 8.92684832 -0.01775107 16.59005802 -3 25 C-3.66 25 -4.32 25 -5 25 C-4.80664062 24.28457031 -4.61328125 23.56914062 -4.4140625 22.83203125 C-2.43818983 15.27089475 -1.06117151 7.74030987 0 0 Z " fill="#CBCDED" transform="translate(134,177)"/>
<path d="M0 0 C0.66 0 1.32 0 2 0 C3.60772383 3.21544767 3.47231467 6.51263549 3 10 C0.17884131 15.54156171 0.17884131 15.54156171 -3.25 16.875 C-3.8275 16.91625 -4.405 16.9575 -5 17 C-4.505 15.515 -4.505 15.515 -4 14 C-3.34 14.33 -2.68 14.66 -2 15 C-1.7834375 14.071875 -1.7834375 14.071875 -1.5625 13.125 C-1 11 -1 11 0 9 C0.06950541 7.45976004 0.08452357 5.91665012 0.0625 4.375 C0.05347656 3.55773437 0.04445312 2.74046875 0.03515625 1.8984375 C0.02355469 1.27195313 0.01195312 0.64546875 0 0 Z " fill="#C1C8EA" transform="translate(192,147)"/>
<path d="M0 0 C-1 3 -1 3 -4 5 C-11.14893617 5.68085106 -11.14893617 5.68085106 -14.5 3 C-14.995 2.34 -15.49 1.68 -16 1 C-15.11248047 1.14308594 -15.11248047 1.14308594 -14.20703125 1.2890625 C-8.7044807 2.06103533 -5.03684878 0 0 0 Z " fill="#DAC3ED" transform="translate(424,241)"/>
<path d="M0 0 C0.33 0 0.66 0 1 0 C1.03738281 0.73605469 1.07476562 1.47210938 1.11328125 2.23046875 C1.48966551 9.63438588 1.48966551 9.63438588 5 16 C5.66 16.33 6.32 16.66 7 17 C7 17.66 7 18.32 7 19 C4.47056372 18.65111224 3.2038279 18.18872953 1.3125 16.4375 C-1.52589925 11.1661871 -1.28073627 5.69216118 0 0 Z " fill="#DECAEC" transform="translate(507,227)"/>
<path d="M0 0 C0.33 0 0.66 0 1 0 C1.60901237 6.69913606 -0.13914975 12.9338493 -3 19 C-3.99 19.33 -4.98 19.66 -6 20 C-4 13.33333333 -2 6.66666667 0 0 Z " fill="#C3C6EA" transform="translate(324,212)"/>
<path d="M0 0 C0.66 0 1.32 0 2 0 C-1.18181818 13.18181818 -1.18181818 13.18181818 -4 16 C-4.66 16 -5.32 16 -6 16 C-4.25192871 10.53262809 -2.34205919 5.24175152 0 0 Z " fill="#C1C5EF" transform="translate(129,202)"/>
<path d="M0 0 C0.33 0 0.66 0 1 0 C1.04898438 1.12277344 1.09796875 2.24554688 1.1484375 3.40234375 C1.52202856 11.13386692 1.95321159 18.49510917 4 26 C3.01 26 2.02 26 1 26 C-1.69983817 17.26522944 -0.76250709 8.97491454 0 0 Z " fill="#BBBFE7" transform="translate(35,174)"/>
<path d="M0 0 C2.72426311 2.35277269 3.8141763 4.62496331 5 8 C4.01 8 3.02 8 2 8 C1.67 6.35 1.34 4.7 1 3 C0.34 3 -0.32 3 -1 3 C-1.103125 3.61875 -1.20625 4.2375 -1.3125 4.875 C-2 7 -2 7 -5 9 C-4.37315423 6.07471973 -3.51695295 3.58774327 -2 1 C-1.34 0.67 -0.68 0.34 0 0 Z " fill="#C0C5EE" transform="translate(198,240)"/>
<path d="M0 0 C0.66 0 1.32 0 2 0 C1.28269264 3.23165844 0.18684926 6.18707922 -1.0625 9.25 C-1.42472656 10.14203125 -1.78695313 11.0340625 -2.16015625 11.953125 C-2.57587891 12.96632812 -2.57587891 12.96632812 -3 14 C-3.99 13.67 -4.98 13.34 -6 13 C-5.1905146 11.01959844 -4.37732831 9.04070923 -3.5625 7.0625 C-3.11003906 5.96035156 -2.65757812 4.85820312 -2.19140625 3.72265625 C-1 1 -1 1 0 0 Z " fill="#C4C7ED" transform="translate(292,221)"/>
<path d="M0 0 C1.69193359 3.38386718 0.24788179 7.03184949 -0.4375 10.625 C-0.58509766 11.42679688 -0.73269531 12.22859375 -0.88476562 13.0546875 C-1.2506507 15.03754855 -1.62457121 17.01892377 -2 19 C-2.33 19 -2.66 19 -3 19 C-4.19754358 12.14134131 -3.87756649 7.38192964 -1 1 C-0.67 0.67 -0.34 0.34 0 0 Z " fill="#C7CAF0" transform="translate(27,155)"/>
<path d="M0 0 C0 0.99 0 1.98 0 3 C-3.08960109 4.82695589 -5.06770369 5.22295727 -8.625 4.8125 C-9.40101563 4.73644531 -10.17703125 4.66039062 -10.9765625 4.58203125 C-13 4 -13 4 -15 1 C-14.25234375 1.09539062 -13.5046875 1.19078125 -12.734375 1.2890625 C-11.25710938 1.45535156 -11.25710938 1.45535156 -9.75 1.625 C-8.77546875 1.74101562 -7.8009375 1.85703125 -6.796875 1.9765625 C-3.86570607 2.00112537 -2.45471036 1.5312717 0 0 Z " fill="#BFC3E8" transform="translate(316,249)"/>
<path d="M0 0 C0.4125 0.639375 0.825 1.27875 1.25 1.9375 C3.17810487 4.20990931 4.11424181 4.60196439 7 5 C7 4.01 7 3.02 7 2 C7.66 2 8.32 2 9 2 C8.67 3.65 8.34 5.3 8 7 C6.3125 7.75 6.3125 7.75 4 8 C1.25 6.0625 1.25 6.0625 -1 4 C-0.67 2.68 -0.34 1.36 0 0 Z " fill="#DBC8EA" transform="translate(492,238)"/>
<path d="M0 0 C0 3.63 0 7.26 0 11 C-0.99 11 -1.98 11 -3 11 C-3.33 7.7 -3.66 4.4 -4 1 C-2 0 -2 0 0 0 Z " fill="#BCC5EC" transform="translate(228,217)"/>
<path d="M0 0 C0.84406458 2.36546493 1.21729813 3.50952707 0.1796875 5.8515625 C-2.51425189 9.5133843 -4.40399799 11.81817091 -9 13 C-7.625 10.5 -7.625 10.5 -6 8 C-5.34 8 -4.68 8 -4 8 C-3.71125 7.05125 -3.4225 6.1025 -3.125 5.125 C-2 2 -2 2 0 0 Z " fill="#C6CBEE" transform="translate(120,223)"/>
<path d="M0 0 C0.33 0 0.66 0 1 0 C1.33 6.6 1.66 13.2 2 20 C1.01 19.67 0.02 19.34 -1 19 C-0.67 12.73 -0.34 6.46 0 0 Z " fill="#C6CCED" transform="translate(312,212)"/>
<path d="M0 0 C-0.969375 0.45375 -1.93875 0.9075 -2.9375 1.375 C-6.07079582 2.65786221 -6.07079582 2.65786221 -7 5 C-7.66 5 -8.32 5 -9 5 C-9.66 6.32 -10.32 7.64 -11 9 C-11.66 9 -12.32 9 -13 9 C-11.64908476 4.57882285 -9.8349855 2.556657 -6 0 C-2.55737705 -1.27868852 -2.55737705 -1.27868852 0 0 Z " fill="#DAC8EC" transform="translate(556,204)"/>
<path d="M0 0 C2.0625 0.4375 2.0625 0.4375 4 1 C3.01 1 2.02 1 1 1 C1.33 2.98 1.66 4.96 2 7 C2.99 7.33 3.98 7.66 5 8 C3.34385343 8.38218767 1.67542976 8.71395102 0 9 C-1 8 -1 8 -1.125 4.5 C-1 1 -1 1 0 0 Z " fill="#C0C3E6" transform="translate(255,173)"/>
<path d="M0 0 C2.475 0.495 2.475 0.495 5 1 C5 1.66 5 2.32 5 3 C7.31 3.66 9.62 4.32 12 5 C11.67 5.99 11.34 6.98 11 8 C6.40378078 6.5129879 3.53027653 4.20187872 0 1 C0 0.67 0 0.34 0 0 Z " fill="#C4CBED" transform="translate(117,125)"/>
<path d="M0 0 C0 0.66 0 1.32 0 2 C-6.4 5.07692308 -6.4 5.07692308 -9.4375 4.6875 C-9.953125 4.460625 -10.46875 4.23375 -11 4 C-11 3.34 -11 2.68 -11 2 C-7.12315913 0.80712589 -4.08378077 0 0 0 Z " fill="#C3C7EC" transform="translate(234,250)"/>
<path d="M0 0 C0.66 0 1.32 0 2 0 C1.42365861 4.75481646 -0.55068521 7.97048212 -3 12 C-3.66 11.67 -4.32 11.34 -5 11 C-3.35 7.37 -1.7 3.74 0 0 Z " fill="#D7BDEA" transform="translate(524,223)"/>
<path d="M0 0 C0.7425 0.0825 1.485 0.165 2.25 0.25 C-0.08333333 2.58333333 -2.41666667 4.91666667 -4.75 7.25 C-6.875 6.875 -6.875 6.875 -8.75 6.25 C-8.09 6.25 -7.43 6.25 -6.75 6.25 C-6.75 5.59 -6.75 4.93 -6.75 4.25 C-4.56907554 1.50365068 -3.55855729 0.32350521 0 0 Z " fill="#C2C5ED" transform="translate(257.75,223.75)"/>
<path d="M0 0 C1.44560748 4.56237823 0.40342867 7.49425532 -1 12 C-1.99 12.495 -1.99 12.495 -3 13 C-2.88490339 11.58249437 -2.75746342 10.16598831 -2.625 8.75 C-2.55539062 7.96109375 -2.48578125 7.1721875 -2.4140625 6.359375 C-1.98492887 3.914123 -1.21399362 2.15163097 0 0 Z " fill="#BAC0E6" transform="translate(298,192)"/>
<path d="M0 0 C0.33 0 0.66 0 1 0 C1.06058594 0.83144531 1.12117188 1.66289062 1.18359375 2.51953125 C1.26738281 3.60621094 1.35117188 4.69289062 1.4375 5.8125 C1.51871094 6.89144531 1.59992188 7.97039062 1.68359375 9.08203125 C1.90212461 12.05989905 1.90212461 12.05989905 3 15 C2.0625 17.1875 2.0625 17.1875 1 19 C0.67 19 0.34 19 0 19 C0 12.73 0 6.46 0 0 Z " fill="#CACEF2" transform="translate(67,170)"/>
<path d="M0 0 C0.33 0 0.66 0 1 0 C2.22517308 5.66642551 2.09228867 11.23708518 2 17 C1.67 17 1.34 17 1 17 C0.63455089 15.10630916 0.28310825 13.20991218 -0.0625 11.3125 C-0.25972656 10.25675781 -0.45695313 9.20101562 -0.66015625 8.11328125 C-0.99034946 5.08840784 -0.77474558 2.92019489 0 0 Z " fill="#C9CCEA" transform="translate(245,213)"/>
<path d="M0 0 C0.66 0.33 1.32 0.66 2 1 C1.34 5.95 0.68 10.9 0 16 C-0.33 16 -0.66 16 -1 16 C-2.0006709 10.03654233 -2.0662997 5.71271093 0 0 Z " fill="#DCC2F1" transform="translate(414,220)"/>
<path d="M0 0 C1.03115279 3.26913624 0.9638984 5.86041348 0.5625 9.25 C0.46066406 10.14203125 0.35882813 11.0340625 0.25390625 11.953125 C0.12822266 12.96632812 0.12822266 12.96632812 0 14 C-0.99 14 -1.98 14 -3 14 C-2.69024532 12.22868439 -2.37709575 10.45796222 -2.0625 8.6875 C-1.88847656 7.70136719 -1.71445312 6.71523437 -1.53515625 5.69921875 C-1 3 -1 3 0 0 Z " fill="#DDC9EB" transform="translate(442,210)"/>
<path d="M0 0 C1.99954746 -0.04254356 4.00041636 -0.04080783 6 0 C7 1 7 1 7.0625 4.0625 C7.041875 5.031875 7.02125 6.00125 7 7 C6.34 7 5.68 7 5 7 C4.67 5.35 4.34 3.7 4 2 C2.35 2.33 0.7 2.66 -1 3 C-0.67 2.01 -0.34 1.02 0 0 Z " fill="#DBC3ED" transform="translate(444,204)"/>
<path d="M0 0 C-5.68697571 0.91397824 -10.31302429 0.91397824 -16 0 C-16 -0.33 -16 -0.66 -16 -1 C-10.49379367 -2.37655158 -4.86504849 -3.24336566 0 0 Z " fill="#B8BDE6" transform="translate(74,126)"/>
<path d="M0 0 C2.91387197 0.2913872 3.82565583 0.79452294 5.75 3.0625 C6.1625 3.701875 6.575 4.34125 7 5 C4.69 5.33 2.38 5.66 0 6 C0.66 4.68 1.32 3.36 2 2 C1.01 1.67 0.02 1.34 -1 1 C-0.67 0.67 -0.34 0.34 0 0 Z " fill="#C0C6F1" transform="translate(329,169)"/>
<path d="M0 0 C0 0.99 0 1.98 0 3 C-6.0546875 3.1953125 -6.0546875 3.1953125 -8 3 C-8.66 2.34 -9.32 1.68 -10 1 C-6.61981469 -0.04005702 -3.5219721 -0.08004482 0 0 Z " fill="#C7CBF0" transform="translate(280,142)"/>
<path d="M0 0 C3.3 0 6.6 0 10 0 C6 2 6 2 2 2 C2 4.31 2 6.62 2 9 C1.67 9 1.34 9 1 9 C0.67 6.03 0.34 3.06 0 0 Z " fill="#B4B9E2" transform="translate(150,132)"/>
<path d="M0 0 C-0.4640625 1.051875 -0.4640625 1.051875 -0.9375 2.125 C-2.03302678 5.08936657 -2.56422992 7.87698108 -3 11 C-3.66 11 -4.32 11 -5 11 C-5.36637589 4.64948454 -5.36637589 4.64948454 -3.625 1.5625 C-2 0 -2 0 0 0 Z " fill="#CFB8EA" transform="translate(512,257)"/>
<path d="M0 0 C0.33 0 0.66 0 1 0 C1.48108275 1.41601714 1.95978141 2.83284437 2.4375 4.25 C2.83775391 5.43335938 2.83775391 5.43335938 3.24609375 6.640625 C3.91954708 8.74821988 4.49150595 10.84753973 5 13 C4.01 13.495 4.01 13.495 3 14 C0.56574762 9.03006806 -0.34615998 5.65394631 0 0 Z " fill="#BABFE9" transform="translate(65,237)"/>
<path d="M0 0 C0.99 0 1.98 0 3 0 C3.375 2.75 3.375 2.75 3 6 C0 8.375 0 8.375 -3 10 C-3 9.01 -3 8.02 -3 7 C-1.35 6.34 0.3 5.68 2 5 C2 4.01 2 3.02 2 2 C1.01 1.67 0.02 1.34 -1 1 C-0.67 0.67 -0.34 0.34 0 0 Z " fill="#CDBDE4" transform="translate(464,235)"/>
<path d="M0 0 C2.64 0 5.28 0 8 0 C7.4375 1.9375 7.4375 1.9375 6 4 C2.375 4.75 2.375 4.75 -1 5 C2 3 2 3 4 3 C4 2.34 4 1.68 4 1 C2.68 0.67 1.36 0.34 0 0 Z " fill="#B7BCE8" transform="translate(216,239)"/>
<path d="M0 0 C1.65 0 3.3 0 5 0 C3.8553125 0.86625 3.8553125 0.86625 2.6875 1.75 C-0.00891579 3.83357198 -0.00891579 3.83357198 -1.6875 6.25 C-2.3371875 7.11625 -2.3371875 7.11625 -3 8 C-3.66 8 -4.32 8 -5 8 C-4.34 6.35 -3.68 4.7 -3 3 C-2.34 3 -1.68 3 -1 3 C-0.67 2.01 -0.34 1.02 0 0 Z " fill="#CFB9E5" transform="translate(523,209)"/>
<path d="M0 0 C0.66 0 1.32 0 2 0 C2.28571429 8.57142857 2.28571429 8.57142857 0 12 C-1.16063604 7.74433453 -0.76173392 4.3164922 0 0 Z " fill="#C4CAF0" transform="translate(151,154)"/>
<path d="M0 0 C0.66 0 1.32 0 2 0 C1.875 1.75 1.875 1.75 1 4 C-2.0625 6.25 -2.0625 6.25 -5 8 C-5.66 7.34 -6.32 6.68 -7 6 C-5.68 5.67 -4.36 5.34 -3 5 C-3 4.34 -3 3.68 -3 3 C-2.34 3 -1.68 3 -1 3 C-0.67 2.01 -0.34 1.02 0 0 Z " fill="#D4BEE5" transform="translate(452,233)"/>
<path d="M0 0 C2.375 -0.1875 2.375 -0.1875 5 0 C7.1519437 3.22791555 7.20086443 4.28400809 7 8 C6.34 8 5.68 8 5 8 C4.9175 7.21625 4.835 6.4325 4.75 5.625 C4.27193661 2.85250896 4.27193661 2.85250896 1.9375 1.6875 C1.298125 1.460625 0.65875 1.23375 0 1 C0 0.67 0 0.34 0 0 Z " fill="#CCCDEA" transform="translate(361,221)"/>
<path d="M0 0 C0.66 0 1.32 0 2 0 C1.40075776 4.19469571 0.42500059 8.00999834 -1 12 C-1.33 12 -1.66 12 -2 12 C-1.85962479 10.18706911 -1.71255111 8.3746557 -1.5625 6.5625 C-1.48128906 5.55316406 -1.40007812 4.54382813 -1.31640625 3.50390625 C-1 1 -1 1 0 0 Z " fill="#B8BFDF" transform="translate(315,191)"/>
<path d="M0 0 C0.66 0.33 1.32 0.66 2 1 C-2.43076923 6.78461538 -2.43076923 6.78461538 -5.3125 7.875 C-5.869375 7.91625 -6.42625 7.9575 -7 8 C-5.50902342 4.2047869 -3.24299151 2.38957269 0 0 Z " fill="#BCC0E2" transform="translate(43,132)"/>
<path d="M0 0 C-4.17737474 1.59138085 -7.53160785 2.21278058 -12 2 C-11 0 -11 0 -9.2578125 -0.703125 C-8.55398437 -0.88359375 -7.85015625 -1.0640625 -7.125 -1.25 C-6.42632812 -1.44078125 -5.72765625 -1.6315625 -5.0078125 -1.828125 C-3 -2 -3 -2 0 0 Z " fill="#BFC2EE" transform="translate(254,239)"/>
<path d="M0 0 C0.66 0.33 1.32 0.66 2 1 C-0.23795825 4.35693737 -1.2189697 4.91970563 -5 6 C-7.1640625 5.546875 -7.1640625 5.546875 -9 5 C-7.54735962 4.1361871 -6.0876837 3.28419546 -4.625 2.4375 C-3.40683594 1.72400391 -3.40683594 1.72400391 -2.1640625 0.99609375 C-1.44992188 0.66738281 -0.73578125 0.33867188 0 0 Z " fill="#C9CBEF" transform="translate(52,126)"/>
<path d="M0 0 C3 3.75 3 3.75 3 6 C3.66 6.33 4.32 6.66 5 7 C5 7.66 5 8.32 5 9 C4.34 9 3.68 9 3 9 C0.8125 6.75 0.8125 6.75 -1 4 C-0.75 1.6875 -0.75 1.6875 0 0 Z " fill="#C5C7E9" transform="translate(264,242)"/>
<path d="M0 0 C0.66 0.33 1.32 0.66 2 1 C0.375 3 0.375 3 -2 5 C-5.25 5.25 -5.25 5.25 -8 5 C-5.56159764 2.56159764 -3.14759102 1.37707107 0 0 Z " fill="#C7C9E7" transform="translate(104,241)"/>
<path d="M0 0 C2.27521866 2.16687491 4.15794162 4.45620509 6 7 C3.625 6.8125 3.625 6.8125 1 6 C-0.3125 3.4375 -0.3125 3.4375 -1 1 C-0.67 0.67 -0.34 0.34 0 0 Z " fill="#C5C9EA" transform="translate(83,239)"/>
<path d="M0 0 C0.99 0.33 1.98 0.66 3 1 C3 2.98 3 4.96 3 7 C2.67 5.68 2.34 4.36 2 3 C0.35 3.33 -1.3 3.66 -3 4 C-2.67 3.01 -2.34 2.02 -2 1 C-1.34 0.67 -0.68 0.34 0 0 Z " fill="#CDB4E7" transform="translate(448,252)"/>
<path d="M0 0 C2.64 1.65 5.28 3.3 8 5 C4 6 4 6 1.75 4.75 C1.1725 4.1725 0.595 3.595 0 3 C0 2.01 0 1.02 0 0 Z " fill="#D3BEE2" transform="translate(439,240)"/>
<path d="M0 0 C2.25 0.25 2.25 0.25 4 1 C2.824375 1.928125 2.824375 1.928125 1.625 2.875 C-0.96837647 4.89858661 -0.96837647 4.89858661 -3 7 C-3.33 6.01 -3.66 5.02 -4 4 C-2.25 1.9375 -2.25 1.9375 0 0 Z " fill="#CCD2ED" transform="translate(323,180)"/>
<path d="M0 0 C2.12508244 3.18762365 2.5020163 5.26512223 3 9 C2.01 9 1.02 9 0 9 C0 6.03 0 3.06 0 0 Z " fill="#B7BCEB" transform="translate(244,222)"/>
<path d="M0 0 C0.33 0 0.66 0 1 0 C1 1.98 1 3.96 1 6 C1.66 6.33 2.32 6.66 3 7 C2.01 7.66 1.02 8.32 0 9 C-0.33 8.67 -0.66 8.34 -1 8 C-0.82364548 5.30917128 -0.38164079 2.67148554 0 0 Z " fill="#C2C5F2" transform="translate(211,186)"/>
<path d="M0 0 C1.98 0 3.96 0 6 0 C6 1.65 6 3.3 6 5 C5.34 4.34 4.68 3.68 4 3 C1.42938689 2.35232207 1.42938689 2.35232207 -1 2 C-0.67 1.34 -0.34 0.68 0 0 Z " fill="#B7C0ED" transform="translate(326,178)"/>
<path d="M0 0 C0.66 0.66 1.32 1.32 2 2 C1.54545455 7.45454545 1.54545455 7.45454545 -1 10 C-1.125 3.375 -1.125 3.375 0 0 Z " fill="#BDC1EB" transform="translate(185,178)"/>
<path d="M0 0 C1.65 0 3.3 0 5 0 C5.33 1.65 5.66 3.3 6 5 C5.34 4.67 4.68 4.34 4 4 C4 3.34 4 2.68 4 2 C2.35 2 0.7 2 -1 2 C-0.67 1.34 -0.34 0.68 0 0 Z " fill="#DCC7E7" transform="translate(369,169)"/>
</svg>
